<svg width="178" height="178" viewBox="0 0 178 178" fill="none" xmlns="http://www.w3.org/2000/svg">
<rect width="178" height="178" fill="#00AB37"/>
<path d="M48.9205 159.682V168.409H47.8977L43.1421 161.557H43.0568V168.409H42V159.682H43.0227L47.7955 166.551H47.8807V159.682H48.9205ZM55.0238 165.733V161.864H56.0295V168.409H55.0238V167.301H54.9556C54.8022 167.633 54.5636 167.916 54.2397 168.149C53.9159 168.379 53.5068 168.494 53.0124 168.494C52.6034 168.494 52.2397 168.405 51.9215 168.226C51.6034 168.044 51.3534 167.771 51.1715 167.408C50.9897 167.041 50.8988 166.579 50.8988 166.023V161.864H51.9045V165.954C51.9045 166.432 52.038 166.812 52.3051 167.097C52.5749 167.381 52.9187 167.523 53.3363 167.523C53.5863 167.523 53.8406 167.459 54.0991 167.331C54.3605 167.203 54.5792 167.007 54.7553 166.743C54.9343 166.479 55.0238 166.142 55.0238 165.733ZM53.0124 160.977L54.0522 159H55.2284L53.8988 160.977H53.0124ZM57.8715 168.409V161.864H58.8431V162.886H58.9283C59.0646 162.537 59.2848 162.266 59.5888 162.072C59.8928 161.876 60.2578 161.778 60.684 161.778C61.1158 161.778 61.4752 161.876 61.7621 162.072C62.0519 162.266 62.2777 162.537 62.4396 162.886H62.5078C62.6754 162.548 62.9269 162.28 63.2621 162.081C63.5973 161.879 63.9993 161.778 64.4681 161.778C65.0533 161.778 65.532 161.962 65.9041 162.328C66.2763 162.692 66.4624 163.258 66.4624 164.028V168.409H65.4567V164.028C65.4567 163.545 65.3246 163.2 65.0604 162.993C64.7962 162.785 64.4851 162.682 64.1271 162.682C63.6669 162.682 63.3104 162.821 63.0575 163.099C62.8047 163.375 62.6783 163.724 62.6783 164.148V168.409H61.6556V163.926C61.6556 163.554 61.5348 163.254 61.2933 163.027C61.0519 162.797 60.7408 162.682 60.3601 162.682C60.0987 162.682 59.8544 162.751 59.6271 162.891C59.4027 163.03 59.2209 163.223 59.0817 163.47C58.9453 163.714 58.8771 163.997 58.8771 164.318V168.409H57.8715ZM71.0455 168.545C70.4148 168.545 69.8708 168.406 69.4134 168.128C68.9588 167.847 68.608 167.454 68.3608 166.952C68.1165 166.446 67.9943 165.858 67.9943 165.187C67.9943 164.517 68.1165 163.926 68.3608 163.415C68.608 162.9 68.9517 162.5 69.3921 162.213C69.8352 161.923 70.3523 161.778 70.9432 161.778C71.2841 161.778 71.6208 161.835 71.9531 161.949C72.2855 162.062 72.5881 162.247 72.8608 162.503C73.1335 162.756 73.3509 163.091 73.5128 163.508C73.6747 163.926 73.7557 164.44 73.7557 165.051V165.477H68.7102V164.608H72.733C72.733 164.239 72.6591 163.909 72.5114 163.619C72.3665 163.329 72.1591 163.101 71.8892 162.933C71.6222 162.766 71.3068 162.682 70.9432 162.682C70.5426 162.682 70.196 162.781 69.9034 162.98C69.6137 163.176 69.3906 163.432 69.2344 163.747C69.0781 164.062 69 164.4 69 164.761V165.341C69 165.835 69.0852 166.254 69.2557 166.598C69.429 166.939 69.6691 167.199 69.9759 167.378C70.2827 167.554 70.6392 167.642 71.0455 167.642C71.3097 167.642 71.5483 167.605 71.7614 167.531C71.9773 167.454 72.1634 167.341 72.3196 167.19C72.4759 167.037 72.5966 166.846 72.6818 166.619L73.6534 166.892C73.5512 167.221 73.3793 167.511 73.1378 167.761C72.8963 168.008 72.598 168.202 72.2429 168.341C71.8878 168.477 71.4887 168.545 71.0455 168.545ZM75.2855 168.409V161.864H76.2571V162.852H76.3253C76.4446 162.528 76.6605 162.266 76.973 162.064C77.2855 161.862 77.6378 161.761 78.0298 161.761C78.1037 161.761 78.196 161.763 78.3068 161.766C78.4176 161.768 78.5014 161.773 78.5583 161.778V162.801C78.5242 162.793 78.446 162.78 78.3239 162.763C78.2046 162.743 78.0781 162.733 77.9446 162.733C77.6264 162.733 77.3423 162.8 77.0923 162.933C76.8452 163.064 76.6492 163.246 76.5043 163.479C76.3622 163.709 76.2912 163.971 76.2912 164.267V168.409H75.2855ZM82.2102 168.545C81.6193 168.545 81.1009 168.405 80.6548 168.123C80.2117 167.842 79.8651 167.449 79.6151 166.943C79.3679 166.437 79.2443 165.846 79.2443 165.17C79.2443 164.489 79.3679 163.893 79.6151 163.385C79.8651 162.876 80.2117 162.481 80.6548 162.2C81.1009 161.919 81.6193 161.778 82.2102 161.778C82.8012 161.778 83.3182 161.919 83.7614 162.2C84.2074 162.481 84.554 162.876 84.8012 163.385C85.0512 163.893 85.1762 164.489 85.1762 165.17C85.1762 165.846 85.0512 166.437 84.8012 166.943C84.554 167.449 84.2074 167.842 83.7614 168.123C83.3182 168.405 82.8012 168.545 82.2102 168.545ZM82.2102 167.642C82.6591 167.642 83.0284 167.527 83.3182 167.297C83.608 167.067 83.8225 166.764 83.9617 166.389C84.1009 166.014 84.1705 165.608 84.1705 165.17C84.1705 164.733 84.1009 164.325 83.9617 163.947C83.8225 163.57 83.608 163.264 83.3182 163.031C83.0284 162.798 82.6591 162.682 82.2102 162.682C81.7614 162.682 81.3921 162.798 81.1023 163.031C80.8125 163.264 80.598 163.57 80.4588 163.947C80.3196 164.325 80.25 164.733 80.25 165.17C80.25 165.608 80.3196 166.014 80.4588 166.389C80.598 166.764 80.8125 167.067 81.1023 167.297C81.3921 167.527 81.7614 167.642 82.2102 167.642ZM92.5579 168.545C92.0124 168.545 91.5309 168.408 91.1133 168.132C90.6957 167.854 90.369 167.462 90.1332 166.956C89.8974 166.447 89.7795 165.847 89.7795 165.153C89.7795 164.466 89.8974 163.869 90.1332 163.364C90.369 162.858 90.6971 162.467 91.1176 162.192C91.538 161.916 92.0238 161.778 92.5749 161.778C93.0011 161.778 93.3377 161.849 93.5849 161.991C93.8349 162.131 94.0252 162.29 94.1559 162.469C94.2894 162.645 94.3931 162.79 94.467 162.903H94.5522V159.682H95.5579V168.409H94.5863V167.403H94.467C94.3931 167.523 94.288 167.673 94.1517 167.855C94.0153 168.034 93.8207 168.195 93.5678 168.337C93.315 168.476 92.9784 168.545 92.5579 168.545ZM92.6943 167.642C93.0977 167.642 93.4386 167.537 93.717 167.327C93.9954 167.114 94.207 166.82 94.3519 166.445C94.4968 166.067 94.5693 165.631 94.5693 165.136C94.5693 164.648 94.4982 164.22 94.3562 163.854C94.2142 163.484 94.0039 163.197 93.7255 162.993C93.4471 162.785 93.1034 162.682 92.6943 162.682C92.2681 162.682 91.913 162.791 91.6289 163.01C91.3477 163.226 91.136 163.52 90.994 163.892C90.8548 164.261 90.7852 164.676 90.7852 165.136C90.7852 165.602 90.8562 166.025 90.9982 166.406C91.1431 166.784 91.3562 167.085 91.6374 167.31C91.9215 167.531 92.2738 167.642 92.6943 167.642ZM99.4656 168.562C99.0508 168.562 98.6744 168.484 98.3363 168.328C97.9982 168.169 97.7298 167.94 97.5309 167.642C97.332 167.341 97.2326 166.977 97.2326 166.551C97.2326 166.176 97.3065 165.872 97.4542 165.639C97.6019 165.403 97.7994 165.219 98.0465 165.085C98.2937 164.952 98.5664 164.852 98.8647 164.787C99.1659 164.719 99.4684 164.665 99.7724 164.625C100.17 164.574 100.492 164.535 100.74 164.51C100.99 164.481 101.171 164.435 101.285 164.369C101.401 164.304 101.46 164.19 101.46 164.028V163.994C101.46 163.574 101.345 163.247 101.115 163.014C100.887 162.781 100.542 162.665 100.079 162.665C99.5991 162.665 99.2227 162.77 98.9499 162.98C98.6772 163.19 98.4855 163.415 98.3747 163.653L97.4201 163.312C97.5906 162.915 97.8178 162.605 98.1019 162.383C98.3889 162.159 98.7014 162.003 99.0394 161.915C99.3803 161.824 99.7156 161.778 100.045 161.778C100.255 161.778 100.497 161.804 100.769 161.855C101.045 161.903 101.311 162.004 101.566 162.158C101.825 162.311 102.039 162.543 102.21 162.852C102.38 163.162 102.465 163.577 102.465 164.097V168.409H101.46V167.523H101.409C101.34 167.665 101.227 167.817 101.068 167.979C100.909 168.141 100.697 168.278 100.433 168.392C100.168 168.506 99.8463 168.562 99.4656 168.562ZM99.619 167.659C100.017 167.659 100.352 167.581 100.624 167.425C100.9 167.268 101.107 167.067 101.247 166.82C101.389 166.572 101.46 166.312 101.46 166.04V165.119C101.417 165.17 101.323 165.217 101.178 165.26C101.036 165.3 100.872 165.335 100.684 165.366C100.499 165.395 100.319 165.42 100.143 165.443C99.9702 165.463 99.8292 165.48 99.7213 165.494C99.4599 165.528 99.2156 165.584 98.9883 165.66C98.7639 165.734 98.582 165.846 98.4428 165.997C98.3065 166.145 98.2383 166.346 98.2383 166.602C98.2383 166.952 98.3676 167.216 98.6261 167.395C98.8874 167.571 99.2184 167.659 99.619 167.659ZM112.312 163.329L111.409 163.585C111.352 163.435 111.268 163.288 111.157 163.146C111.05 163.001 110.902 162.882 110.714 162.788C110.527 162.695 110.287 162.648 109.994 162.648C109.594 162.648 109.26 162.74 108.993 162.925C108.729 163.106 108.596 163.338 108.596 163.619C108.596 163.869 108.687 164.067 108.869 164.212C109.051 164.356 109.335 164.477 109.721 164.574L110.693 164.812C111.278 164.954 111.714 165.172 112.001 165.464C112.288 165.754 112.432 166.128 112.432 166.585C112.432 166.96 112.324 167.295 112.108 167.591C111.895 167.886 111.596 168.119 111.213 168.29C110.829 168.46 110.383 168.545 109.875 168.545C109.207 168.545 108.655 168.4 108.217 168.111C107.78 167.821 107.503 167.398 107.386 166.841L108.341 166.602C108.432 166.954 108.604 167.219 108.856 167.395C109.112 167.571 109.446 167.659 109.858 167.659C110.327 167.659 110.699 167.56 110.974 167.361C111.253 167.159 111.392 166.918 111.392 166.636C111.392 166.409 111.312 166.219 111.153 166.065C110.994 165.909 110.75 165.793 110.42 165.716L109.329 165.46C108.73 165.318 108.29 165.098 108.008 164.8C107.73 164.498 107.591 164.122 107.591 163.67C107.591 163.301 107.694 162.974 107.902 162.69C108.112 162.406 108.398 162.183 108.758 162.021C109.122 161.859 109.534 161.778 109.994 161.778C110.642 161.778 111.15 161.92 111.52 162.204C111.892 162.489 112.156 162.864 112.312 163.329ZM116.605 168.545C116.014 168.545 115.495 168.405 115.049 168.123C114.606 167.842 114.259 167.449 114.009 166.943C113.762 166.437 113.639 165.846 113.639 165.17C113.639 164.489 113.762 163.893 114.009 163.385C114.259 162.876 114.606 162.481 115.049 162.2C115.495 161.919 116.014 161.778 116.605 161.778C117.195 161.778 117.713 161.919 118.156 162.2C118.602 162.481 118.948 162.876 119.195 163.385C119.445 163.893 119.57 164.489 119.57 165.17C119.57 165.846 119.445 166.437 119.195 166.943C118.948 167.449 118.602 167.842 118.156 168.123C117.713 168.405 117.195 168.545 116.605 168.545ZM116.605 167.642C117.053 167.642 117.423 167.527 117.713 167.297C118.002 167.067 118.217 166.764 118.356 166.389C118.495 166.014 118.565 165.608 118.565 165.17C118.565 164.733 118.495 164.325 118.356 163.947C118.217 163.57 118.002 163.264 117.713 163.031C117.423 162.798 117.053 162.682 116.605 162.682C116.156 162.682 115.786 162.798 115.497 163.031C115.207 163.264 114.992 163.57 114.853 163.947C114.714 164.325 114.644 164.733 114.644 165.17C114.644 165.608 114.714 166.014 114.853 166.389C114.992 166.764 115.207 167.067 115.497 167.297C115.786 167.527 116.156 167.642 116.605 167.642ZM121.106 168.409V161.864H122.077V162.852H122.145C122.265 162.528 122.481 162.266 122.793 162.064C123.106 161.862 123.458 161.761 123.85 161.761C123.924 161.761 124.016 161.763 124.127 161.766C124.238 161.768 124.322 161.773 124.378 161.778V162.801C124.344 162.793 124.266 162.78 124.144 162.763C124.025 162.743 123.898 162.733 123.765 162.733C123.447 162.733 123.162 162.8 122.912 162.933C122.665 163.064 122.469 163.246 122.324 163.479C122.182 163.709 122.111 163.971 122.111 164.267V168.409H121.106ZM128.827 161.864V162.716H125.435V161.864H128.827ZM126.424 160.295H127.43V166.534C127.43 166.818 127.471 167.031 127.553 167.173C127.638 167.312 127.746 167.406 127.877 167.454C128.01 167.5 128.151 167.523 128.299 167.523C128.41 167.523 128.501 167.517 128.572 167.506C128.643 167.491 128.699 167.48 128.742 167.471L128.947 168.375C128.878 168.4 128.783 168.426 128.661 168.452C128.539 168.48 128.384 168.494 128.197 168.494C127.912 168.494 127.634 168.433 127.361 168.311C127.091 168.189 126.867 168.003 126.688 167.753C126.512 167.503 126.424 167.187 126.424 166.807V160.295ZM133.014 168.545C132.383 168.545 131.839 168.406 131.382 168.128C130.927 167.847 130.577 167.454 130.329 166.952C130.085 166.446 129.963 165.858 129.963 165.187C129.963 164.517 130.085 163.926 130.329 163.415C130.577 162.9 130.92 162.5 131.361 162.213C131.804 161.923 132.321 161.778 132.912 161.778C133.253 161.778 133.589 161.835 133.922 161.949C134.254 162.062 134.557 162.247 134.829 162.503C135.102 162.756 135.319 163.091 135.481 163.508C135.643 163.926 135.724 164.44 135.724 165.051V165.477H130.679V164.608H134.702C134.702 164.239 134.628 163.909 134.48 163.619C134.335 163.329 134.128 163.101 133.858 162.933C133.591 162.766 133.275 162.682 132.912 162.682C132.511 162.682 132.165 162.781 131.872 162.98C131.582 163.176 131.359 163.432 131.203 163.747C131.047 164.062 130.969 164.4 130.969 164.761V165.341C130.969 165.835 131.054 166.254 131.224 166.598C131.398 166.939 131.638 167.199 131.944 167.378C132.251 167.554 132.608 167.642 133.014 167.642C133.278 167.642 133.517 167.605 133.73 167.531C133.946 167.454 134.132 167.341 134.288 167.19C134.444 167.037 134.565 166.846 134.65 166.619L135.622 166.892C135.52 167.221 135.348 167.511 135.106 167.761C134.865 168.008 134.567 168.202 134.211 168.341C133.856 168.477 133.457 168.545 133.014 168.545Z" fill="white"/>
<path fill-rule="evenodd" clip-rule="evenodd" d="M111.777 73.0358C100.257 70.8091 91.4574 68.6891 89.5241 68.2091L89.5108 68.0625L89.4974 68.0225C91.5241 67.5958 101.471 65.7025 112.257 66.6891C131.724 68.4758 129.471 42.2358 113.964 46.7958C119.604 32.0091 97.7908 26.0758 94.0441 45.4491C91.8041 57.0491 89.6574 65.8758 89.2041 67.7292C89.1641 67.7158 89.1241 67.7158 89.0841 67.7158L89.0308 67.7292C88.6174 65.7158 86.7108 55.7692 87.6974 44.9692C89.4841 25.5025 63.2441 27.7558 67.8041 43.2624C53.0041 37.6224 47.0841 59.4224 66.4574 63.1691C78.0441 65.4224 86.8708 67.5558 88.7374 68.0091C88.7241 68.0491 88.7108 68.1025 88.7241 68.1425V68.1958C86.6708 68.6225 76.7374 70.5158 65.9641 69.5291C46.5108 67.7425 48.7508 93.9824 64.2574 89.4224C58.6174 104.209 80.4308 110.129 84.1774 90.7558C86.1641 80.5558 88.0574 72.4891 88.7908 69.4358C89.0974 75.4491 88.4841 81.4758 87.2441 87.3424C85.9241 93.6491 83.9374 99.8091 81.8574 105.942C79.6841 112.036 77.6841 118.423 76.8574 125.009C75.9641 131.596 76.1108 138.382 77.4041 144.969V144.982L77.4174 145.049C77.6574 146.076 78.6841 146.716 79.7108 146.476C80.7508 146.223 81.3908 145.196 81.1508 144.169C79.7108 138.036 79.3108 131.676 79.9241 125.369C80.2174 122.209 80.7508 119.062 81.4841 115.956C82.2041 112.836 83.1508 109.782 84.0841 106.649C85.9374 100.409 87.6974 94.1025 88.7774 87.6358C89.6574 82.4625 90.0574 77.1958 89.8174 71.9558C90.4574 76.2225 91.2308 83.5158 90.5241 91.2491C88.7374 110.702 114.991 108.463 110.431 92.9558C125.217 98.5958 131.151 76.7825 111.777 73.0358Z" fill="white"/>
</svg>
