<svg width="24" height="24" viewBox="0 0 24 24" fill="none" xmlns="http://www.w3.org/2000/svg">
<g clip-path="url(#clip0_1_8)">
<path d="M9.75 17.25C8.26664 17.25 6.8166 16.8101 5.58323 15.986C4.34986 15.1619 3.38856 13.9906 2.82091 12.6201C2.25325 11.2497 2.10472 9.74168 2.39411 8.28683C2.6835 6.83197 3.39781 5.4956 4.4467 4.4467C5.4956 3.39781 6.83197 2.6835 8.28683 2.39411C9.74168 2.10472 11.2497 2.25325 12.6201 2.82091C13.9906 3.38856 15.1619 4.34986 15.986 5.58323C16.8101 6.8166 17.25 8.26664 17.25 9.75C17.25 10.7349 17.056 11.7102 16.6791 12.6201C16.3022 13.5301 15.7497 14.3569 15.0533 15.0533C14.3569 15.7497 13.5301 16.3022 12.6201 16.6791C11.7102 17.056 10.7349 17.25 9.75 17.25ZM9.75 3.75C8.56332 3.75 7.40328 4.1019 6.41658 4.76119C5.42989 5.42047 4.66085 6.35755 4.20673 7.4539C3.7526 8.55026 3.63378 9.75666 3.86529 10.9205C4.0968 12.0844 4.66825 13.1535 5.50736 13.9926C6.34648 14.8318 7.41558 15.4032 8.57946 15.6347C9.74335 15.8662 10.9497 15.7474 12.0461 15.2933C13.1425 14.8392 14.0795 14.0701 14.7388 13.0834C15.3981 12.0967 15.75 10.9367 15.75 9.75C15.75 8.1587 15.1179 6.63258 13.9926 5.50736C12.8674 4.38214 11.3413 3.75 9.75 3.75Z" fill="black"/>
<path d="M21 21.75C20.9013 21.7506 20.8034 21.7317 20.7121 21.6943C20.6207 21.657 20.5376 21.602 20.4675 21.5325L14.4675 15.5325C14.3976 15.4626 14.3421 15.3796 14.3043 15.2882C14.2664 15.1968 14.2469 15.0989 14.2469 15C14.2469 14.9011 14.2664 14.8032 14.3043 14.7118C14.3421 14.6205 14.3976 14.5374 14.4675 14.4675C14.5374 14.3976 14.6204 14.3421 14.7118 14.3043C14.8032 14.2664 14.9011 14.2469 15 14.2469C15.0989 14.2469 15.1968 14.2664 15.2882 14.3043C15.3796 14.3421 15.4626 14.3976 15.5325 14.4675L21.5325 20.4675C21.6028 20.5372 21.6586 20.6202 21.6967 20.7116C21.7347 20.803 21.7544 20.901 21.7544 21C21.7544 21.099 21.7347 21.1971 21.6967 21.2884C21.6586 21.3798 21.6028 21.4628 21.5325 21.5325C21.4624 21.602 21.3793 21.657 21.2879 21.6943C21.1966 21.7317 21.0987 21.7506 21 21.75Z" fill="black"/>
</g>
<defs>
<clipPath id="clip0_1_8">
<rect width="24" height="24" fill="white"/>
</clipPath>
</defs>
</svg>
